<svg xmlns="http://www.w3.org/2000/svg" width="512" height="512" viewBox="0 0 512 512"><g><path d="M237.447,145.614,113.825,112.425a8,8,0,0,0-9.8,5.652L66.686,257.151a72.093,72.093,0,0,0,43.281,85.7c-.047.143-.1.284-.14.432L89.083,420.547l-7.727-2.074a7.972,7.972,0,0,0-4.106-.011L14.868,434.847a8,8,0,0,0-.042,15.464L153.9,487.65a8,8,0,0,0,7.665-13.448l-46.752-45.685a7.981,7.981,0,0,0-3.516-2l-6.761-1.816h0l20.744-77.263c.049-.181.081-.361.117-.542a72.784,72.784,0,0,0,46.238-8.786,70.9,70.9,0,0,0,34.126-43.615L243.1,155.415a8,8,0,0,0-5.653-9.8ZM128.5,464.265l-80.436-21.6,31.192-8.192,25.868,6.945Zm61.8-173.923a55.021,55.021,0,0,1-26.517,33.818,57.136,57.136,0,0,1-42.541,5.622A56.064,56.064,0,0,1,82.139,261.3l11.034-41.1a44.182,44.182,0,0,1,13.348,3.287A60.125,60.125,0,0,0,130.663,228a60.131,60.131,0,0,0,24.143-4.51A44.652,44.652,0,0,1,173.331,220a44.639,44.639,0,0,1,18.526,3.491,60.289,60.289,0,0,0,15.321,4.012Zm21.075-78.5a43.961,43.961,0,0,1-13.908-3.334A60.133,60.133,0,0,0,173.331,204a60.131,60.131,0,0,0-24.143,4.51A44.652,44.652,0,0,1,130.663,212a44.636,44.636,0,0,1-18.522-3.49,60.647,60.647,0,0,0-14.77-3.946L117.4,129.952l108.169,29.041Z"/><path d="M127.553,306.623a32.109,32.109,0,0,1-22.236-39.1L110,250.074a8,8,0,1,0-15.453-4.148l-4.685,17.448a48.167,48.167,0,0,0,33.361,58.653,8,8,0,1,0,4.328-15.4Z"/><path d="M411.03,298.311a8,8,0,0,0-11.313.065,31.812,31.812,0,0,1-13.9,8.222,32.915,32.915,0,0,1-8.038,1c-14.912,0-27.92-9.657-31.63-23.479a8,8,0,0,0-15.454,4.151c5.585,20.8,24.947,35.326,47.086,35.328a48.926,48.926,0,0,0,12.083-1.519c.063-.016.125-.032.188-.05a47.849,47.849,0,0,0,21.048-12.4A8,8,0,0,0,411.03,298.311Z"/><path d="M498.405,434.847l-62.382-16.385a7.972,7.972,0,0,0-4.106.011l-7.727,2.074-20.744-77.263c-.04-.148-.092-.289-.14-.432a72.091,72.091,0,0,0,43.282-85.7L409.249,118.077a8,8,0,0,0-9.8-5.652L275.826,145.614a8,8,0,0,0-5.652,9.8L307.513,294.49a70.889,70.889,0,0,0,34.126,43.615,72.784,72.784,0,0,0,46.238,8.786c.035.181.068.361.116.542L408.737,424.7h0l-6.759,1.815a7.979,7.979,0,0,0-3.517,2L351.708,474.2a8,8,0,0,0,7.665,13.448l139.074-37.339a8,8,0,0,0-.042-15.464ZM395.87,129.952l21.95,81.754a44.753,44.753,0,0,1-12.345-3.2,66.879,66.879,0,0,0-48.287,0,50.9,50.9,0,0,1-37.047,0,59.12,59.12,0,0,0-20.332-4.421l-12.108-45.1ZM349.483,324.16a55.015,55.015,0,0,1-26.517-33.818L304.23,220.557a47.426,47.426,0,0,1,10.291,2.933,66.874,66.874,0,0,0,48.285,0,50.906,50.906,0,0,1,37.051,0,59.577,59.577,0,0,0,22.331,4.487l8.947,33.322a56.065,56.065,0,0,1-39.113,68.482A57.118,57.118,0,0,1,349.483,324.16Zm35.288,140.1,23.375-22.843,25.868-6.945,31.191,8.192Z"/><path d="M256,64a8,8,0,0,0-8,8v40a8,8,0,0,0,16,0V72A8,8,0,0,0,256,64Z"/><path d="M226.343,125.657a8,8,0,1,0,11.314-11.314l-20-20a8,8,0,0,0-11.314,11.314Z"/><path d="M277,128a7.974,7.974,0,0,0,5.657-2.343l20-20a8,8,0,0,0-11.314-11.314l-20,20A8,8,0,0,0,277,128Z"/><path d="M256,32a8,8,0,0,0-8,8v8a8,8,0,0,0,16,0V40A8,8,0,0,0,256,32Z"/></g></svg>
